<svg width="20" height="20" viewBox="0 0 20 20" fill="none" xmlns="http://www.w3.org/2000/svg">
<rect width="20" height="20" fill="black"/>
<path d="M8.33855 3.9503C8.26003 3.9622 8.16961 3.98361 8.13629 3.99789C8.10298 4.01217 8.07442 4.02168 8.06967 4.02168C8.04349 4.00979 7.80078 4.16208 7.64373 4.29057C7.18924 4.65702 6.9037 5.12102 6.8109 5.63262C6.76807 5.88247 6.77996 6.36789 6.83707 6.63678C6.94415 7.12696 7.17734 7.64094 7.47478 8.03594C7.73177 8.38335 7.79126 8.68793 7.91024 10.325C7.9959 11.5196 8.0887 12.1097 8.22671 12.3548C8.30286 12.4904 8.38852 12.5261 8.46943 12.4547C8.57888 12.3572 8.78114 11.7218 8.87394 11.1817C8.91916 10.9128 9.04289 10.4178 9.12855 10.1466C9.34033 9.49459 9.61636 9.1448 10.028 9.0163C10.3683 8.90923 10.8133 8.99727 11.056 9.21856C11.2202 9.36609 11.313 9.53504 11.3724 9.80631C11.4177 10.0086 11.4224 10.0847 11.4129 10.4488C11.4081 10.6796 11.3748 11.096 11.3368 11.3958C11.2677 11.9788 11.2487 12.4452 11.2915 12.4904C11.3368 12.5356 11.4105 12.4952 11.5676 12.3405C12.0577 11.8503 12.636 10.5344 13.0048 9.06627L13.0976 8.69983L13.2142 8.60227C13.5711 8.30483 13.6806 8.20013 13.8234 8.02166C14.0209 7.77895 14.1279 7.60287 14.235 7.33398C14.3564 7.03654 14.442 6.51972 14.3754 6.47927C14.3706 6.47927 14.3706 6.47927 14.3754 6.42262C14.4325 6.32982 14.3421 5.87295 14.1874 5.49461C14.0589 5.17813 13.6592 4.61895 13.4379 4.44524C12.9739 4.08593 12.3409 4.05262 11.4676 4.34292C11.1797 4.4381 11.1773 4.44286 11.3272 4.5666C11.6842 4.85928 11.8246 4.99967 11.8483 5.08771C11.8793 5.19955 11.8436 5.31615 11.7555 5.39943C11.6913 5.45654 11.6604 5.46368 11.4652 5.45178C11.4248 5.4494 11.3272 5.38277 11.1916 5.26618C10.2636 4.47141 9.46169 4.03358 8.77876 3.94792C8.55509 3.92175 8.54081 3.92174 8.33855 3.9503Z" fill="#F6F6F6"/>
<path d="M0.555091 2.50821L19.7289 2.46309L10.1801 18.7034L0.555091 2.50821Z" stroke="#F6F6F6" stroke-width="0.237952"/>
<path d="M1.385 2.94734L18.8937 2.90614L10.1753 17.9677L1.385 2.94734Z" stroke="#F6F6F6" stroke-width="0.237952"/>
</svg>
