<svg width="32" height="32" viewBox="0 0 32 32" fill="none" xmlns="http://www.w3.org/2000/svg">
<rect width="32" height="32" rx="16" fill="#111111"/>
<path d="M13.807 10.397C13.7161 10.4108 13.6113 10.4356 13.5727 10.4521C13.5342 10.4687 13.5011 10.4797 13.4956 10.4797C13.4653 10.4659 13.1841 10.6423 13.0022 10.7911C12.4758 11.2156 12.1451 11.753 12.0376 12.3455C11.988 12.6349 12.0018 13.1972 12.0679 13.5086C12.192 14.0763 12.4621 14.6716 12.8066 15.1291C13.1042 15.5315 13.1731 15.8843 13.3109 17.7804C13.4101 19.164 13.5176 19.8475 13.6775 20.1313C13.7657 20.2884 13.8649 20.3298 13.9586 20.2471C14.0854 20.1341 14.3196 19.3982 14.4271 18.7726C14.4795 18.4612 14.6228 17.8879 14.722 17.5737C14.9673 16.8186 15.287 16.4134 15.7638 16.2646C16.1579 16.1406 16.6733 16.2426 16.9544 16.4989C17.1446 16.6698 17.252 16.8654 17.3209 17.1796C17.3733 17.4139 17.3788 17.5021 17.3678 17.9238C17.3623 18.1911 17.3237 18.6734 17.2796 19.0207C17.1997 19.6959 17.1776 20.2361 17.2272 20.2884C17.2796 20.3408 17.365 20.2939 17.5469 20.1148C18.1147 19.5471 18.7844 18.023 19.2116 16.3225L19.3191 15.8981L19.4541 15.7851C19.8675 15.4406 19.9943 15.3193 20.1597 15.1126C20.3884 14.8315 20.5124 14.6275 20.6365 14.3161C20.777 13.9716 20.8762 13.373 20.7991 13.3262C20.7935 13.3262 20.7935 13.3262 20.7991 13.2605C20.8652 13.1531 20.7605 12.6239 20.5813 12.1857C20.4325 11.8191 19.9695 11.1715 19.7132 10.9703C19.1758 10.5541 18.4427 10.5155 17.4312 10.8518C17.0977 10.962 17.095 10.9675 17.2686 11.1108C17.682 11.4498 17.8446 11.6124 17.8722 11.7144C17.908 11.8439 17.8666 11.979 17.7647 12.0754C17.6903 12.1416 17.6544 12.1499 17.4284 12.1361C17.3816 12.1333 17.2686 12.0562 17.1115 11.9211C16.0366 11.0006 15.1079 10.4935 14.3169 10.3943C14.0578 10.3639 14.0413 10.3639 13.807 10.397Z" fill="#F6F6F6"/>
<path d="M4.78432 8.72499L26.9942 8.67272L15.934 27.483L4.78432 8.72499Z" stroke="#FFCB74" stroke-width="0.275604"/>
<path d="M5.75041 9.2406L26.0316 9.19287L15.932 26.6376L5.75041 9.2406Z" stroke="#FFCB74" stroke-width="0.275604"/>
</svg>
