<svg width="44" height="44" viewBox="0 0 44 44" fill="none" xmlns="http://www.w3.org/2000/svg">
<g clip-path="url(#clip0_628_721)" filter="url(#filter0_d_628_721)">
<path d="M40 18C40 8.05894 31.9411 0 22 0C12.0589 0 4 8.05894 4 18C4 26.9842 10.5824 34.431 19.1875 35.7813V23.2031H14.6172V18H19.1875V14.0344C19.1875 9.52312 21.8748 7.03125 25.9864 7.03125C27.9558 7.03125 30.0156 7.38281 30.0156 7.38281V11.8125H27.7459C25.5099 11.8125 24.8125 13.2 24.8125 14.6236V18H29.8047L29.0066 23.2031H24.8125V35.7813C33.4176 34.431 40 26.9844 40 18Z" fill="#1877F2"/>
<path d="M29.0066 23.2031L29.8047 18H24.8125V14.6236C24.8125 13.1999 25.5099 11.8125 27.7459 11.8125H30.0156V7.38281C30.0156 7.38281 27.9558 7.03125 25.9863 7.03125C21.8748 7.03125 19.1875 9.52313 19.1875 14.0344V18H14.6172V23.2031H19.1875V35.7813C20.1179 35.9271 21.0582 36.0002 22 36C22.9418 36.0002 23.8821 35.9271 24.8125 35.7813V23.2031H29.0066Z" fill="white"/>
</g>
<defs>
<filter id="filter0_d_628_721" x="0" y="0" width="44" height="44" filterUnits="userSpaceOnUse" color-interpolation-filters="sRGB">
<feFlood flood-opacity="0" result="BackgroundImageFix"/>
<feColorMatrix in="SourceAlpha" type="matrix" values="0 0 0 0 0 0 0 0 0 0 0 0 0 0 0 0 0 0 127 0" result="hardAlpha"/>
<feOffset dy="4"/>
<feGaussianBlur stdDeviation="2"/>
<feComposite in2="hardAlpha" operator="out"/>
<feColorMatrix type="matrix" values="0 0 0 0 0 0 0 0 0 0 0 0 0 0 0 0 0 0 0.25 0"/>
<feBlend mode="normal" in2="BackgroundImageFix" result="effect1_dropShadow_628_721"/>
<feBlend mode="normal" in="SourceGraphic" in2="effect1_dropShadow_628_721" result="shape"/>
</filter>
<clipPath id="clip0_628_721">
<rect width="36" height="36" fill="white" transform="translate(4)"/>
</clipPath>
</defs>
</svg>
