<svg width="200" height="200" viewBox="0 0 200 200" fill="none" xmlns="http://www.w3.org/2000/svg">
<path d="M86.4457 54.2805C85.8484 54.371 85.1607 54.5339 84.9073 54.6425C84.6539 54.7511 84.4368 54.8235 84.4006 54.8235C84.2015 54.733 82.3555 55.8913 81.161 56.8686C77.7043 59.6557 75.5325 63.1848 74.8266 67.0759C74.5009 68.9762 74.5914 72.6683 75.0257 74.7133C75.8401 78.4416 77.6138 82.3508 79.876 85.3551C81.8306 87.9974 82.2831 90.314 83.188 102.765C83.8395 111.851 84.5454 116.339 85.5951 118.203C86.1742 119.235 86.8257 119.506 87.4411 118.963C88.2736 118.221 89.8119 113.389 90.5178 109.281C90.8616 107.236 91.8027 103.471 92.4543 101.408C94.065 96.4492 96.1644 93.7888 99.2954 92.8115C101.883 91.9971 105.268 92.6667 107.114 94.3498C108.363 95.4719 109.068 96.7569 109.521 98.8201C109.865 100.358 109.901 100.938 109.828 103.707C109.792 105.462 109.539 108.629 109.249 110.91C108.725 115.344 108.58 118.891 108.905 119.235C109.249 119.579 109.81 119.271 111.005 118.095C114.733 114.366 119.131 104.358 121.936 93.1916L122.642 90.4044L123.529 89.6624C126.244 87.4002 127.076 86.6038 128.162 85.2465C129.664 83.4005 130.478 82.0612 131.293 80.0161C132.216 77.7538 132.831 73.8446 132.325 73.537C132.216 73.4646 132.234 73.3017 132.361 73.0845C132.795 72.3787 132.107 68.9038 130.931 66.0262C129.954 63.6192 126.913 59.3661 125.23 58.0449C121.701 55.3121 116.887 55.0587 110.245 57.2667C108.055 57.9906 108.037 58.0268 109.177 58.9679C111.892 61.194 112.959 62.2618 113.14 62.9314C113.376 63.7821 113.104 64.6689 112.435 65.3023C111.946 65.7367 111.711 65.7909 110.227 65.7005C109.919 65.6824 109.177 65.1756 108.145 64.2888C101.087 58.244 94.988 54.914 89.7938 54.2624C88.0926 54.0633 87.984 54.0633 86.4457 54.2805Z" fill="#FFCB74"/>
<path d="M27.2133 43.2895L173.053 42.9462L100.423 166.463L27.2133 43.2895Z" stroke="#FFCB74" stroke-width="1.80982"/>
<path d="M33.5453 46.6645L166.721 46.3511L100.402 160.902L33.5453 46.6645Z" stroke="#FFCB74" stroke-width="1.80982"/>
</svg>
