<svg width="20" height="19" viewBox="0 0 20 19" fill="none" xmlns="http://www.w3.org/2000/svg">
<path d="M9.38641 1.09882C9.42871 0.995655 9.50074 0.907399 9.59333 0.845283C9.68593 0.783168 9.79491 0.75 9.90641 0.75C10.0179 0.75 10.1269 0.783168 10.2195 0.845283C10.3121 0.907399 10.3841 0.995655 10.4264 1.09882L12.5514 6.20982C12.5912 6.30546 12.6566 6.38827 12.7404 6.44914C12.8242 6.51001 12.9232 6.54658 13.0264 6.55482L18.5444 6.99682C19.0434 7.03682 19.2454 7.65982 18.8654 7.98482L14.6614 11.5868C14.5829 11.654 14.5243 11.7415 14.4922 11.8398C14.4601 11.938 14.4557 12.0432 14.4794 12.1438L15.7644 17.5288C15.7902 17.6369 15.7835 17.7501 15.745 17.8543C15.7065 17.9585 15.6379 18.049 15.548 18.1142C15.4582 18.1795 15.351 18.2167 15.24 18.2211C15.129 18.2254 15.0192 18.1968 14.9244 18.1388L10.1994 15.2538C10.1112 15.1999 10.0098 15.1714 9.90641 15.1714C9.80303 15.1714 9.70164 15.1999 9.61341 15.2538L4.88841 18.1398C4.79367 18.1978 4.68387 18.2264 4.57287 18.2221C4.46187 18.2177 4.35466 18.1805 4.26478 18.1152C4.1749 18.05 4.10638 17.9595 4.06787 17.8553C4.02936 17.7511 4.02259 17.6379 4.04841 17.5298L5.33341 12.1438C5.35724 12.0432 5.35286 11.938 5.32075 11.8397C5.28864 11.7415 5.23005 11.6539 5.15141 11.5868L0.947414 7.98482C0.862757 7.91266 0.801421 7.81699 0.771174 7.70994C0.740927 7.60289 0.743129 7.48927 0.777503 7.38347C0.811877 7.27768 0.876875 7.18446 0.964265 7.11563C1.05166 7.0468 1.15751 7.00545 1.26841 6.99682L6.78641 6.55482C6.88966 6.54658 6.98864 6.51001 7.07244 6.44914C7.15625 6.38827 7.22164 6.30546 7.26141 6.20982L9.38641 1.09882Z" fill="#FFCB74" stroke="#FFCB74" stroke-width="1.5" stroke-linecap="round" stroke-linejoin="round"/>
</svg>
