<svg width="478" height="200" viewBox="0 0 478 200" fill="none" xmlns="http://www.w3.org/2000/svg">
<path d="M10.9375 144.591V126.835L73.7926 27.5455H87.7841V53.6818H78.9062L33.9489 124.847V125.983H120.099V144.591H10.9375ZM79.9006 173V139.193L80.0426 131.097V27.5455H100.852V173H79.9006Z" fill="#F6F6F6"/>
<path d="M225.216 69.2766C224.618 69.3671 223.931 69.53 223.677 69.6386C223.424 69.7472 223.207 69.8196 223.171 69.8196C222.971 69.7291 221.125 70.8873 219.931 71.8646C216.474 74.6518 214.302 78.1809 213.597 82.072C213.271 83.9723 213.361 87.6643 213.796 89.7094C214.61 93.4377 216.384 97.3469 218.646 100.351C220.601 102.993 221.053 105.31 221.958 117.762C222.609 126.847 223.315 131.335 224.365 133.199C224.944 134.231 225.596 134.502 226.211 133.959C227.044 133.217 228.582 128.385 229.288 124.277C229.632 122.232 230.573 118.467 231.224 116.404C232.835 111.445 234.934 108.785 238.065 107.808C240.653 106.993 244.038 107.663 245.884 109.346C247.132 110.468 247.838 111.753 248.291 113.816C248.635 115.355 248.671 115.934 248.598 118.703C248.562 120.458 248.309 123.625 248.019 125.906C247.494 130.34 247.35 133.887 247.675 134.231C248.019 134.575 248.58 134.267 249.775 133.091C253.503 129.363 257.901 119.354 260.706 108.188L261.412 105.401L262.299 104.659C265.013 102.396 265.846 101.6 266.932 100.243C268.434 98.3966 269.248 97.0573 270.063 95.0122C270.986 92.7499 271.601 88.8407 271.094 88.5331C270.986 88.4607 271.004 88.2978 271.131 88.0806C271.565 87.3748 270.877 83.8999 269.701 81.0223C268.724 78.6153 265.683 74.3622 264 73.041C260.471 70.3082 255.657 70.0548 249.015 72.2628C246.825 72.9867 246.807 73.0229 247.947 73.964C250.662 76.1901 251.729 77.2579 251.91 77.9275C252.146 78.7781 251.874 79.665 251.205 80.2984C250.716 80.7327 250.481 80.787 248.997 80.6966C248.689 80.6785 247.947 80.1717 246.915 79.2849C239.857 73.2401 233.758 69.91 228.564 69.2585C226.863 69.0594 226.754 69.0594 225.216 69.2766Z" fill="#FFCB74"/>
<path d="M165.984 58.2895L311.823 57.9462L239.194 181.463L165.984 58.2895Z" stroke="#FFCB74" stroke-width="1.80982"/>
<path d="M172.316 61.6645L305.491 61.3511L239.173 175.902L172.316 61.6645Z" stroke="#FFCB74" stroke-width="1.80982"/>
<path d="M357.938 144.591V126.835L420.793 27.5455H434.784V53.6818H425.906L380.949 124.847V125.983H467.099V144.591H357.938ZM426.901 173V139.193L427.043 131.097V27.5455H447.852V173H426.901Z" fill="#F6F6F6"/>
</svg>
